<svg height="512" viewBox="0 0 58 59" width="512" xmlns="http://www.w3.org/2000/svg"><g id="Page-1" fill="none" fill-rule="evenodd"><g id="044---Ace-of-Spades" fill-rule="nonzero" transform="translate(-1)"><path id="Shape" d="m51.57 11.86 5.82 1.16c.5209375.1013603.9798071.4066041 1.2746235.8478898s.4011532.9820515.2953765 1.5021102l-8.34 42.02c-.216173 1.0819554-1.2677055 1.7844686-2.35 1.57l-9.15-1.82z" fill="#f3d55b"/><path id="Shape" d="m43.03 4.54 7.16.68c1.0987805.1054354 1.9043915 1.08111978 1.8 2.18l-4.52 47.79c-.105534 1.0945077-1.0748405 1.8985407-2.17 1.8l-1.3-.12z" fill="#f9eab0"/><rect id="Rectangle-path" fill="#f5efca" height="56" rx="2" transform="matrix(.999 -.053 .053 .999 -1.54 1.267)" width="42" x="2.34" y="1.936"/><path id="Shape" d="m23.97 41.919c1.7062039.0328195 3.4015068.2800931 5.046.736-3.1-1.84-3.311-5.834-3.311-5.834s8.146 2.575 7.779-4.415-9.566-10.512-10.722-13.455c-.841 3.048-9.619 7.515-9.251 14.506s8.2 3.574 8.2 3.574.21 3.994-2.68 6.149c1.5869476-.6257612 3.2463058-1.04942 4.939-1.261z" fill="#35495e"/><path id="Shape" d="m40.459 13.7-3.469-8.832c-.1577598-.40002255-.5535852-.65440406-.9829943-.63173199s-.7962466.3173209-.9110057.73173199l-2.523 9.144c-.0830459.3009548-.020769.6234262.1683682.871816.1891373.2483898.4834293.3941924.7956318.394184h.051l1-.052c.4805089-.0246914.8753154-.3880692.9396905-.864886.0643752-.4768168-.2199331-.931882-.6766905-1.083114l.3-1.086 2.555-.134.411 1.047c-.4388884.1980457-.6743249.6807415-.560196 1.1485232.114129.4677817.5454137.7878115 1.026196.7614768l1-.051c.3213338-.0165663.6150667-.1867398.7892715-.4572625.1742048-.2705228.2075979-.6083437.0897285-.9077375zm-4.748-3.44.515-1.866.708 1.8z" fill="#35495e"/><path id="Shape" d="m38.74 18.109c-.2709092.0424124-.5465236-.0393205-.750515-.2225637s-.3147069-.4485462-.301485-.7224363c-.0143594-.5522847-.4737153-.9883594-1.026-.974s-.9883594.4737153-.974 1.026v.054c-.0034727.1918375-.0424643.3813705-.115.559-.1.227-.275.462-.83.49-.5522847.0140833-.9885833.4732153-.9745 1.0255s.4732153.9885833 1.0255.9745h.053c.3386218-.01556.672848-.0830123.991-.2l.06 1.151c.0282078.5314846.467768.947748 1 .947h.053c.2649899-.0139509.5135697-.132652.6910011-.3299648.1774315-.1973127.2691644-.4570567.2549989-.7220352l-.06-1.153c.3289617.0824478.6682479.1161406 1.007.1.5522847-.0276142.9776142-.4977153.95-1.05-.0276143-.5522847-.4977153-.9776142-1.05-.95z" fill="#547580"/><path id="Shape" d="m13.922 44.865c-.2014242-.2505158-.5109965-.3889303-.832-.372l-1 .053c-.4805089.0246914-.8753154.3880692-.9396905.864886-.0643752.4768168.2199331.931882.6766905 1.083114l-.3 1.086-2.555.134-.412-1.048c.4388884-.1980457.6743249-.6807415.56019597-1.1485232s-.5454137-.7878115-1.02619597-.7614768l-1 .053c-.32089438.0169835-.61407722.1871422-.78800632.4573464s-.20741183.6075305-.08999368.9066536l3.473 8.827c.1501646.3830257.5195902.6349969.931.635h.053c.4300365-.0229817.7970607-.3186961.911-.734l2.523-9.145c.0848689-.3094796.0160579-.6408879-.185-.891zm-3.468 6.614-.708-1.8 1.223-.064z" fill="#35495e"/><path id="Shape" d="m11.829 39.553c-.3388083.017757-.6729532.0868789-.991.205l-.06-1.151c-.0189351-.3572656-.2270307-.6772909-.5458993-.8395254-.31886866-.1622345-.70006651-.1420311-1.00000005.053-.29993354.195031-.47303573.5352598-.45410065.8925254l.061 1.156c-.32882612-.0835558-.6679831-.1192566-1.007-.106-.55228472.0276143-.97761417.4977153-.94999994 1.05.02761424.5522847.49771521.9776142 1.04999994.95.27130261-.0436201.54777637.0378273.75210109.2215641.20432471.1837369.31456811.4500409.29989891.7244359.0282078.5314846.46776795.947748 1 .947h.053c.5318787-.0276947.9487205-.4674012.948-1 0-.017 0-.035 0-.052.0034107-.1922667.0427538-.3821992.116-.56.1-.227.274-.462.831-.491.5522847-.0292711.976271-.5007153.947-1.053-.0292711-.5522847-.5007153-.9762711-1.053-.947z" fill="#547580"/></g></g></svg>